<svg width="179" height="46" viewBox="0 0 179 46" fill="none" xmlns="http://www.w3.org/2000/svg">
<path d="M7.424 45.48C4.992 45.48 3.264 44.2 2.24 41.64C1.28 39.08 0.8 34.984 0.8 29.352C0.8 21.032 1.984 13.128 4.352 5.64C4.928 3.784 5.856 2.44 7.136 1.608C8.48 0.711998 10.336 0.263998 12.704 0.263998C13.984 0.263998 14.88 0.423998 15.392 0.743998C15.904 1.064 16.16 1.672 16.16 2.568C16.16 3.592 15.68 5.896 14.72 9.48C14.08 12.04 13.568 14.28 13.184 16.2C12.8 18.12 12.48 20.488 12.224 23.304C14.336 17.8 16.704 13.32 19.328 9.864C21.952 6.408 24.512 3.944 27.008 2.472C29.568 0.999998 31.904 0.263998 34.016 0.263998C38.176 0.263998 40.256 2.344 40.256 6.504C40.256 9 39.552 13.512 38.144 20.04C36.928 25.608 36.32 29.288 36.32 31.08C36.32 33.64 37.248 34.92 39.104 34.92C40.384 34.92 41.888 34.152 43.616 32.616C45.408 31.016 47.776 28.456 50.72 24.936C51.488 24.04 52.352 23.592 53.312 23.592C54.144 23.592 54.784 23.976 55.232 24.744C55.744 25.512 56 26.568 56 27.912C56 30.472 55.392 32.456 54.176 33.864C51.424 37.256 48.448 40.04 45.248 42.216C42.112 44.392 38.528 45.48 34.496 45.48C31.232 45.48 28.768 44.552 27.104 42.696C25.44 40.776 24.608 38.024 24.608 34.44C24.608 32.648 25.056 29.448 25.952 24.84C26.784 20.808 27.2 18.024 27.2 16.488C27.2 15.464 26.848 14.952 26.144 14.952C25.312 14.952 24.128 16.04 22.592 18.216C21.12 20.328 19.584 23.144 17.984 26.664C16.448 30.184 15.2 33.896 14.24 37.8C13.536 40.808 12.704 42.856 11.744 43.944C10.848 44.968 9.408 45.48 7.424 45.48ZM60.041 45.48C56.073 45.48 52.905 44.04 50.537 41.16C48.169 38.28 46.985 34.504 46.985 29.832C46.985 24.712 48.169 19.88 50.537 15.336C52.905 10.728 56.041 7.048 59.945 4.296C63.913 1.48 68.105 0.0719976 72.521 0.0719976C73.929 0.0719976 74.857 0.359998 75.305 0.935998C75.817 1.448 76.233 2.408 76.553 3.816C77.897 3.56 79.305 3.432 80.777 3.432C83.913 3.432 85.481 4.552 85.481 6.792C85.481 8.136 85.001 11.336 84.041 16.392C82.569 23.752 81.833 28.872 81.833 31.752C81.833 32.712 82.057 33.48 82.505 34.056C83.017 34.632 83.657 34.92 84.425 34.92C85.641 34.92 87.113 34.152 88.841 32.616C90.569 31.016 92.905 28.456 95.849 24.936C96.617 24.04 97.481 23.592 98.441 23.592C99.273 23.592 99.913 23.976 100.361 24.744C100.873 25.512 101.129 26.568 101.129 27.912C101.129 30.472 100.521 32.456 99.305 33.864C96.681 37.128 93.897 39.88 90.953 42.12C88.009 44.36 85.161 45.48 82.409 45.48C80.297 45.48 78.345 44.776 76.553 43.368C74.825 41.896 73.513 39.912 72.617 37.416C69.289 42.792 65.097 45.48 60.041 45.48ZM63.497 35.784C64.905 35.784 66.249 34.952 67.529 33.288C68.809 31.624 69.737 29.416 70.313 26.664L73.865 9C71.177 9.064 68.681 10.088 66.377 12.072C64.137 13.992 62.345 16.552 61.001 19.752C59.657 22.952 58.985 26.344 58.985 29.928C58.985 31.912 59.369 33.384 60.137 34.344C60.969 35.304 62.089 35.784 63.497 35.784ZM105.135 45.48C101.167 45.48 97.9988 44.04 95.6308 41.16C93.2628 38.28 92.0788 34.504 92.0788 29.832C92.0788 24.712 93.2628 19.88 95.6308 15.336C97.9988 10.728 101.135 7.048 105.039 4.296C109.007 1.48 113.199 0.0719976 117.615 0.0719976C119.023 0.0719976 119.951 0.359998 120.399 0.935998C120.911 1.448 121.327 2.408 121.647 3.816C122.991 3.56 124.399 3.432 125.871 3.432C129.007 3.432 130.575 4.552 130.575 6.792C130.575 8.136 130.095 11.336 129.135 16.392C127.663 23.752 126.927 28.872 126.927 31.752C126.927 32.712 127.151 33.48 127.599 34.056C128.111 34.632 128.751 34.92 129.519 34.92C130.735 34.92 132.207 34.152 133.935 32.616C135.663 31.016 137.999 28.456 140.943 24.936C141.711 24.04 142.575 23.592 143.535 23.592C144.367 23.592 145.007 23.976 145.455 24.744C145.967 25.512 146.223 26.568 146.223 27.912C146.223 30.472 145.615 32.456 144.399 33.864C141.775 37.128 138.991 39.88 136.047 42.12C133.103 44.36 130.255 45.48 127.503 45.48C125.391 45.48 123.439 44.776 121.647 43.368C119.919 41.896 118.607 39.912 117.711 37.416C114.383 42.792 110.191 45.48 105.135 45.48ZM108.591 35.784C109.999 35.784 111.343 34.952 112.623 33.288C113.903 31.624 114.831 29.416 115.407 26.664L118.959 9C116.271 9.064 113.775 10.088 111.471 12.072C109.231 13.992 107.439 16.552 106.095 19.752C104.751 22.952 104.079 26.344 104.079 29.928C104.079 31.912 104.463 33.384 105.231 34.344C106.063 35.304 107.183 35.784 108.591 35.784ZM149.918 45.48C147.23 45.48 145.118 44.488 143.582 42.504C142.046 40.456 141.086 37.192 140.702 32.712C139.934 23.752 139.55 15.912 139.55 9.192V5.832C139.614 3.72 140.19 2.248 141.278 1.416C142.366 0.583999 143.998 0.167999 146.174 0.167999C147.838 0.167999 149.054 0.551999 149.822 1.32C150.654 2.024 151.07 3.24 151.07 4.968C151.07 12.328 151.518 21.896 152.414 33.672C155.166 28.936 157.534 24.616 159.518 20.712C161.566 16.744 163.774 11.528 166.142 5.064C166.846 3.144 167.774 1.864 168.926 1.224C170.078 0.519999 171.518 0.167999 173.246 0.167999C176.766 0.167999 178.526 1.288 178.526 3.528C178.526 4.296 178.27 5.352 177.758 6.696C172.574 18.792 167.678 28.552 163.07 35.976C160.83 39.624 158.686 42.12 156.638 43.464C154.59 44.808 152.35 45.48 149.918 45.48Z" fill="white"/>
</svg>
